<svg width="70" height="70" viewBox="0 0 70 70" fill="none" xmlns="http://www.w3.org/2000/svg">
<path d="M35 27.7074C33.5578 27.708 32.1481 28.1361 30.9492 28.9378C29.7503 29.7394 28.816 30.8786 28.2645 32.2111C27.7129 33.5437 27.5689 35.0099 27.8506 36.4244C28.1323 37.8388 28.8271 39.138 29.8471 40.1576C30.8671 41.1772 32.1665 41.8715 33.581 42.1527C34.9956 42.4338 36.4617 42.2892 37.7941 41.7372C39.1265 41.1852 40.2653 40.2505 41.0665 39.0513C41.8677 37.8521 42.2953 36.4422 42.2953 35C42.2939 33.0659 41.5247 31.2114 40.1568 29.844C38.7889 28.4766 36.9341 27.7081 35 27.7074ZM52.0502 22.102C51.6789 21.1611 51.1183 20.3066 50.4031 19.5914C49.6879 18.8762 48.8334 18.3156 47.8926 17.9443C45.0215 16.8109 38.1855 17.0652 35 17.0652C31.8145 17.0652 24.9854 16.8014 22.1061 17.9443C21.1652 18.3156 20.3107 18.8762 19.5955 19.5914C18.8803 20.3066 18.3197 21.1611 17.9484 22.102C16.8164 24.973 17.0693 31.8158 17.0693 34.9986C17.0693 38.1814 16.8164 45.016 17.9539 47.8967C18.3252 48.8375 18.8858 49.692 19.601 50.4072C20.3162 51.1224 21.1707 51.683 22.1115 52.0543C24.9826 53.1877 31.8186 52.9334 35.0055 52.9334C38.1924 52.9334 45.0187 53.1973 47.898 52.0543C48.8389 51.683 49.6934 51.1224 50.4086 50.4072C51.1238 49.692 51.6844 48.8375 52.0557 47.8967C53.1973 45.0256 52.9348 38.1828 52.9348 35C52.9348 31.8172 53.1973 24.984 52.0557 22.1033L52.0502 22.102ZM35 46.2109C32.7827 46.2109 30.6152 45.5534 28.7715 44.3216C26.9279 43.0897 25.491 41.3388 24.6424 39.2902C23.7939 37.2417 23.5719 34.9876 24.0045 32.8129C24.4371 30.6381 25.5048 28.6405 27.0727 27.0727C28.6405 25.5048 30.6381 24.4371 32.8129 24.0045C34.9876 23.5719 37.2417 23.7939 39.2902 24.6424C41.3388 25.491 43.0897 26.9279 44.3216 28.7715C45.5534 30.6152 46.2109 32.7827 46.2109 35C46.2127 36.4727 45.924 37.9314 45.3612 39.2924C44.7985 40.6534 43.9727 41.89 42.9313 42.9313C41.89 43.9727 40.6534 44.7985 39.2924 45.3612C37.9314 45.924 36.4727 46.2127 35 46.2109ZM46.673 25.9355C46.1554 25.9358 45.6494 25.7826 45.2189 25.4952C44.7883 25.2078 44.4527 24.7992 44.2545 24.3211C44.0562 23.843 44.0042 23.3168 44.105 22.8091C44.2058 22.3014 44.4549 21.835 44.8208 21.4689C45.1868 21.1028 45.653 20.8534 46.1607 20.7523C46.6683 20.6513 47.1945 20.703 47.6728 20.901C48.151 21.099 48.5598 21.4344 48.8474 21.8648C49.135 22.2952 49.2885 22.8011 49.2885 23.3188C49.2899 23.6625 49.2235 24.0031 49.093 24.3211C48.9625 24.6391 48.7705 24.9282 48.528 25.1718C48.2855 25.4155 47.9973 25.6088 47.6799 25.7408C47.3626 25.8728 47.0222 25.9408 46.6785 25.941L46.673 25.9355ZM59.0625 4.375H10.9375C9.19702 4.375 7.52782 5.0664 6.29711 6.29711C5.0664 7.52782 4.375 9.19702 4.375 10.9375L4.375 59.0625C4.375 60.803 5.0664 62.4722 6.29711 63.7029C7.52782 64.9336 9.19702 65.625 10.9375 65.625H59.0625C60.803 65.625 62.4722 64.9336 63.7029 63.7029C64.9336 62.4722 65.625 60.803 65.625 59.0625V10.9375C65.625 9.19702 64.9336 7.52782 63.7029 6.29711C62.4722 5.0664 60.803 4.375 59.0625 4.375ZM56.7219 44.0234C56.5455 47.5275 55.7457 50.6324 53.1877 53.1836C50.6297 55.7348 47.5275 56.551 44.0275 56.7178C40.4168 56.9215 29.5914 56.9215 25.9807 56.7178C22.4766 56.5414 19.3826 55.7402 16.8205 53.1836C14.2584 50.627 13.4531 47.5207 13.2863 44.0234C13.0826 40.4113 13.0826 29.5846 13.2863 25.9766C13.4627 22.4725 14.2529 19.3676 16.8205 16.8164C19.3881 14.2652 22.4902 13.4586 25.9807 13.2918C29.5914 13.0881 40.4168 13.0881 44.0275 13.2918C47.5316 13.4682 50.6352 14.2693 53.1877 16.826C55.7402 19.3826 56.5551 22.4889 56.7219 25.993C56.9256 29.5914 56.9256 40.4086 56.7219 44.0234Z" fill="black"/>
</svg>
