<svg width="59" height="63" viewBox="0 0 59 63" fill="none" xmlns="http://www.w3.org/2000/svg">
<path d="M52.6786 0H6.32143C4.64488 0 3.037 0.711159 1.8515 1.97703C0.666006 3.2429 0 4.95979 0 6.75V56.25C0 58.0402 0.666006 59.7571 1.8515 61.023C3.037 62.2888 4.64488 63 6.32143 63H24.3968V41.5814H16.0999V31.5H24.3968V23.8162C24.3968 15.0764 29.2695 10.2487 36.7328 10.2487C40.307 10.2487 44.0446 10.9294 44.0446 10.9294V19.5075H39.9264C35.8688 19.5075 34.6032 22.1962 34.6032 24.9539V31.5H43.6613L42.2127 41.5814H34.6032V63H52.6786C54.3551 63 55.963 62.2888 57.1485 61.023C58.334 59.7571 59 58.0402 59 56.25V6.75C59 4.95979 58.334 3.2429 57.1485 1.97703C55.963 0.711159 54.3551 0 52.6786 0Z" fill="black"/>
</svg>
